<svg width="196" height="26" viewBox="0 0 196 26" fill="none" xmlns="http://www.w3.org/2000/svg">
<g filter="url(#filter0_d_117_67)">
<path d="M4.298 15.448L5.27 10.822H6.044C6.476 10.81 6.872 10.558 7.232 10.066C7.592 9.562 7.94 8.788 8.276 7.744C8.612 6.7 8.954 5.35 9.302 3.694L10.022 0.219999H18.698L16.448 10.822H18.122L17.15 15.448H14.99L15.494 13H6.98L6.476 15.448H4.298ZM9.014 10.822H13.964L15.764 2.398H11.894L11.498 4.306C11.246 5.542 10.994 6.592 10.742 7.456C10.502 8.32 10.238 9.028 9.95 9.58C9.674 10.12 9.362 10.534 9.014 10.822ZM24.3452 13.18C23.3252 13.18 22.4732 12.952 21.7892 12.496C21.1172 12.04 20.6372 11.446 20.3492 10.714C20.0612 9.97 19.9772 9.166 20.0972 8.302C20.1932 7.642 20.3912 7.018 20.6912 6.43C20.9912 5.842 21.3872 5.32 21.8792 4.864C22.3832 4.408 22.9592 4.054 23.6072 3.802C24.2552 3.538 24.9572 3.406 25.7132 3.406C26.7332 3.406 27.5792 3.634 28.2512 4.09C28.9352 4.534 29.4212 5.128 29.7092 5.872C30.0092 6.604 30.0992 7.414 29.9792 8.302C29.8952 8.95 29.6972 9.568 29.3852 10.156C29.0852 10.744 28.6892 11.266 28.1972 11.722C27.7052 12.178 27.1352 12.538 26.4872 12.802C25.8392 13.054 25.1252 13.18 24.3452 13.18ZM24.6332 11.254C24.9692 11.254 25.2992 11.182 25.6232 11.038C25.9472 10.882 26.2412 10.672 26.5052 10.408C26.7812 10.132 27.0032 9.814 27.1712 9.454C27.3512 9.094 27.4712 8.704 27.5312 8.284C27.6152 7.72 27.5732 7.216 27.4052 6.772C27.2492 6.328 26.9972 5.98 26.6492 5.728C26.3132 5.464 25.9112 5.332 25.4432 5.332C25.0952 5.332 24.7592 5.41 24.4352 5.566C24.1232 5.71 23.8292 5.914 23.5532 6.178C23.2892 6.442 23.0672 6.754 22.8872 7.114C22.7192 7.474 22.6052 7.87 22.5452 8.302C22.4612 8.878 22.5032 9.388 22.6712 9.832C22.8392 10.276 23.0912 10.624 23.4272 10.876C23.7752 11.128 24.1772 11.254 24.6332 11.254ZM34.7509 13.18C33.9109 13.18 33.2029 13 32.6269 12.64C32.0509 12.28 31.6189 11.8 31.3309 11.2C31.0429 10.588 30.8989 9.922 30.8989 9.202C30.8989 8.458 31.0429 7.738 31.3309 7.042C31.6189 6.346 32.0209 5.728 32.5369 5.188C33.0649 4.636 33.6889 4.204 34.4089 3.892C35.1289 3.568 35.9209 3.406 36.7849 3.406C37.7929 3.406 38.5909 3.628 39.1789 4.072C39.7789 4.516 40.1749 5.098 40.3669 5.818L37.8829 6.538C37.7629 6.19 37.5709 5.926 37.3069 5.746C37.0429 5.554 36.7249 5.458 36.3529 5.458C35.9809 5.458 35.6149 5.548 35.2549 5.728C34.9069 5.896 34.5889 6.142 34.3009 6.466C34.0249 6.778 33.8029 7.144 33.6349 7.564C33.4789 7.984 33.4009 8.434 33.4009 8.914C33.4009 9.346 33.4729 9.73 33.6169 10.066C33.7609 10.402 33.9649 10.666 34.2289 10.858C34.4929 11.038 34.7989 11.128 35.1469 11.128C35.4109 11.128 35.6689 11.08 35.9209 10.984C36.1849 10.888 36.4249 10.756 36.6409 10.588C36.8569 10.42 37.0309 10.228 37.1629 10.012L39.3589 10.732C39.0469 11.2 38.6569 11.62 38.1889 11.992C37.7209 12.364 37.1929 12.658 36.6049 12.874C36.0289 13.078 35.4109 13.18 34.7509 13.18ZM42.3108 3.568H44.4888L44.1108 5.314C44.5668 4.714 45.1188 4.246 45.7668 3.91C46.4268 3.574 47.0988 3.406 47.7828 3.406C48.2868 3.406 48.6948 3.49 49.0068 3.658C49.3188 3.814 49.5468 4.042 49.6908 4.342C49.8468 4.642 49.9308 4.996 49.9428 5.404C50.2788 4.96 50.6448 4.594 51.0408 4.306C51.4368 4.018 51.8508 3.796 52.2828 3.64C52.7268 3.484 53.1768 3.406 53.6328 3.406C54.1848 3.406 54.6108 3.502 54.9108 3.694C55.2108 3.886 55.4208 4.15 55.5408 4.486C55.6728 4.81 55.7388 5.182 55.7388 5.602C55.7388 5.782 55.7268 5.998 55.7028 6.25C55.6788 6.502 55.6308 6.79 55.5588 7.114L54.2988 13H51.8868L53.0028 7.708C53.0868 7.336 53.1288 7.018 53.1288 6.754C53.1288 6.346 53.0388 6.04 52.8588 5.836C52.6908 5.632 52.4568 5.53 52.1568 5.53C51.8688 5.53 51.5688 5.614 51.2568 5.782C50.9448 5.95 50.6508 6.184 50.3748 6.484C50.0988 6.784 49.8648 7.126 49.6728 7.51L48.5208 13H46.1088L47.2248 7.708C47.2728 7.528 47.3028 7.36 47.3148 7.204C47.3268 7.036 47.3328 6.88 47.3328 6.736C47.3328 6.328 47.2488 6.028 47.0808 5.836C46.9128 5.632 46.6728 5.53 46.3608 5.53C45.9288 5.53 45.4788 5.716 45.0108 6.088C44.5548 6.448 44.1828 6.916 43.8948 7.492L42.7248 13H40.3128L42.3108 3.568ZM55.6416 15.268C56.1216 15.232 56.5116 15.172 56.8116 15.088C57.1236 15.004 57.3936 14.866 57.6216 14.674C57.8496 14.494 58.0836 14.236 58.3236 13.9L58.8456 13.198L57.2796 3.568H59.7456L60.5556 10.912L61.1676 9.904C61.5396 9.292 61.8636 8.722 62.1396 8.194C62.4276 7.654 62.6736 7.138 62.8776 6.646C63.0936 6.142 63.2796 5.638 63.4356 5.134C63.5916 4.63 63.7356 4.108 63.8676 3.568H66.2076C66.0516 4.144 65.8776 4.69 65.6856 5.206C65.4936 5.71 65.2656 6.238 65.0016 6.79C64.7376 7.342 64.4016 7.966 63.9936 8.662C63.5976 9.358 63.0996 10.186 62.4996 11.146L61.0596 13.468C60.6396 14.14 60.2316 14.704 59.8356 15.16C59.4516 15.628 59.0556 16.006 58.6476 16.294C58.2516 16.582 57.8316 16.786 57.3876 16.906C56.9436 17.038 56.4576 17.11 55.9296 17.122L55.6416 15.268ZM65.8572 13L67.8552 3.568H76.2432L74.2272 13H71.8152L73.4352 5.422H69.8892L68.2692 13H65.8572ZM76.3865 13L78.3845 3.568H80.7965L80.0045 7.258H83.8565L84.6305 3.568H87.0425L85.0445 13H82.6325L83.4605 9.094H79.6265L78.7985 13H76.3865ZM92.0034 13.18C90.9834 13.18 90.1314 12.952 89.4474 12.496C88.7754 12.04 88.2954 11.446 88.0074 10.714C87.7194 9.97 87.6354 9.166 87.7554 8.302C87.8514 7.642 88.0494 7.018 88.3494 6.43C88.6494 5.842 89.0454 5.32 89.5374 4.864C90.0414 4.408 90.6174 4.054 91.2654 3.802C91.9134 3.538 92.6154 3.406 93.3714 3.406C94.3914 3.406 95.2374 3.634 95.9094 4.09C96.5934 4.534 97.0794 5.128 97.3674 5.872C97.6674 6.604 97.7574 7.414 97.6374 8.302C97.5534 8.95 97.3554 9.568 97.0434 10.156C96.7434 10.744 96.3474 11.266 95.8554 11.722C95.3634 12.178 94.7934 12.538 94.1454 12.802C93.4974 13.054 92.7834 13.18 92.0034 13.18ZM92.2914 11.254C92.6274 11.254 92.9574 11.182 93.2814 11.038C93.6054 10.882 93.8994 10.672 94.1634 10.408C94.4394 10.132 94.6614 9.814 94.8294 9.454C95.0094 9.094 95.1294 8.704 95.1894 8.284C95.2734 7.72 95.2314 7.216 95.0634 6.772C94.9074 6.328 94.6554 5.98 94.3074 5.728C93.9714 5.464 93.5694 5.332 93.1014 5.332C92.7534 5.332 92.4174 5.41 92.0934 5.566C91.7814 5.71 91.4874 5.914 91.2114 6.178C90.9474 6.442 90.7254 6.754 90.5454 7.114C90.3774 7.474 90.2634 7.87 90.2034 8.302C90.1194 8.878 90.1614 9.388 90.3294 9.832C90.4974 10.276 90.7494 10.624 91.0854 10.876C91.4334 11.128 91.8354 11.254 92.2914 11.254ZM103.021 13.18C102.133 13.18 101.377 12.982 100.753 12.586C100.129 12.19 99.6611 11.65 99.3491 10.966C99.0371 10.282 98.8991 9.52 98.9351 8.68C98.9711 7.948 99.1331 7.264 99.4211 6.628C99.7091 5.992 100.105 5.434 100.609 4.954C101.113 4.462 101.701 4.084 102.373 3.82C103.045 3.544 103.771 3.406 104.551 3.406C105.211 3.406 105.799 3.508 106.315 3.712C106.843 3.904 107.263 4.198 107.575 4.594C107.887 4.99 108.049 5.47 108.061 6.034C108.097 7.03 107.683 7.792 106.819 8.32C105.955 8.848 104.611 9.112 102.787 9.112C102.367 9.112 101.923 9.106 101.455 9.094C100.999 9.07 100.519 9.034 100.015 8.986L100.303 7.42C100.723 7.456 101.125 7.486 101.509 7.51C101.893 7.522 102.289 7.528 102.697 7.528C103.453 7.528 104.047 7.48 104.479 7.384C104.923 7.276 105.235 7.126 105.415 6.934C105.595 6.742 105.673 6.508 105.649 6.232C105.637 6.016 105.565 5.83 105.433 5.674C105.313 5.518 105.145 5.404 104.929 5.332C104.713 5.248 104.473 5.206 104.209 5.206C103.837 5.206 103.483 5.296 103.147 5.476C102.823 5.656 102.529 5.908 102.265 6.232C102.013 6.556 101.809 6.934 101.653 7.366C101.497 7.798 101.407 8.266 101.383 8.77C101.347 9.298 101.395 9.76 101.527 10.156C101.659 10.54 101.881 10.84 102.193 11.056C102.505 11.26 102.895 11.362 103.363 11.362C103.699 11.362 103.993 11.32 104.245 11.236C104.497 11.14 104.713 11.026 104.893 10.894C105.073 10.762 105.217 10.636 105.325 10.516C105.433 10.396 105.505 10.3 105.541 10.228L107.539 10.858C107.431 11.038 107.257 11.26 107.017 11.524C106.789 11.776 106.489 12.028 106.117 12.28C105.757 12.532 105.319 12.748 104.803 12.928C104.287 13.096 103.693 13.18 103.021 13.18ZM115.793 0.219999H120.941C121.589 0.219999 122.141 0.387999 122.597 0.723999C123.065 1.06 123.419 1.498 123.659 2.038C123.899 2.578 124.019 3.148 124.019 3.748C124.019 4.336 123.893 4.93 123.641 5.53C123.389 6.118 123.041 6.652 122.597 7.132C122.165 7.612 121.655 7.996 121.067 8.284C120.491 8.572 119.879 8.716 119.231 8.716H116.441L115.541 13H113.075L115.793 0.219999ZM119.519 6.538C119.771 6.538 120.011 6.472 120.239 6.34C120.479 6.208 120.689 6.028 120.869 5.8C121.061 5.56 121.211 5.284 121.319 4.972C121.427 4.66 121.481 4.318 121.481 3.946C121.481 3.622 121.427 3.346 121.319 3.118C121.223 2.878 121.085 2.698 120.905 2.578C120.725 2.458 120.527 2.398 120.311 2.398H117.791L116.909 6.538H119.519ZM128.439 13.18C127.551 13.18 126.795 12.982 126.171 12.586C125.547 12.19 125.079 11.65 124.767 10.966C124.455 10.282 124.317 9.52 124.353 8.68C124.389 7.948 124.551 7.264 124.839 6.628C125.127 5.992 125.523 5.434 126.027 4.954C126.531 4.462 127.119 4.084 127.791 3.82C128.463 3.544 129.189 3.406 129.969 3.406C130.629 3.406 131.217 3.508 131.733 3.712C132.261 3.904 132.681 4.198 132.993 4.594C133.305 4.99 133.467 5.47 133.479 6.034C133.515 7.03 133.101 7.792 132.237 8.32C131.373 8.848 130.029 9.112 128.205 9.112C127.785 9.112 127.341 9.106 126.873 9.094C126.417 9.07 125.937 9.034 125.433 8.986L125.721 7.42C126.141 7.456 126.543 7.486 126.927 7.51C127.311 7.522 127.707 7.528 128.115 7.528C128.871 7.528 129.465 7.48 129.897 7.384C130.341 7.276 130.653 7.126 130.833 6.934C131.013 6.742 131.091 6.508 131.067 6.232C131.055 6.016 130.983 5.83 130.851 5.674C130.731 5.518 130.563 5.404 130.347 5.332C130.131 5.248 129.891 5.206 129.627 5.206C129.255 5.206 128.901 5.296 128.565 5.476C128.241 5.656 127.947 5.908 127.683 6.232C127.431 6.556 127.227 6.934 127.071 7.366C126.915 7.798 126.825 8.266 126.801 8.77C126.765 9.298 126.813 9.76 126.945 10.156C127.077 10.54 127.299 10.84 127.611 11.056C127.923 11.26 128.313 11.362 128.781 11.362C129.117 11.362 129.411 11.32 129.663 11.236C129.915 11.14 130.131 11.026 130.311 10.894C130.491 10.762 130.635 10.636 130.743 10.516C130.851 10.396 130.923 10.3 130.959 10.228L132.957 10.858C132.849 11.038 132.675 11.26 132.435 11.524C132.207 11.776 131.907 12.028 131.535 12.28C131.175 12.532 130.737 12.748 130.221 12.928C129.705 13.096 129.111 13.18 128.439 13.18ZM148.189 13H146.011L146.389 11.254C145.945 11.854 145.393 12.322 144.733 12.658C144.073 12.994 143.401 13.162 142.717 13.162C142.225 13.162 141.823 13.084 141.511 12.928C141.199 12.76 140.965 12.526 140.809 12.226C140.665 11.914 140.581 11.566 140.557 11.182C140.233 11.602 139.867 11.962 139.459 12.262C139.063 12.562 138.643 12.79 138.199 12.946C137.767 13.09 137.323 13.162 136.867 13.162C136.327 13.162 135.901 13.066 135.589 12.874C135.289 12.682 135.073 12.418 134.941 12.082C134.821 11.746 134.761 11.374 134.761 10.966C134.761 10.786 134.773 10.57 134.797 10.318C134.821 10.066 134.869 9.784 134.941 9.472L136.201 3.568H138.613L137.497 8.86C137.413 9.22 137.371 9.538 137.371 9.814C137.371 10.234 137.455 10.546 137.623 10.75C137.803 10.942 138.043 11.038 138.343 11.038C138.643 11.038 138.943 10.954 139.243 10.786C139.555 10.618 139.849 10.384 140.125 10.084C140.401 9.784 140.635 9.448 140.827 9.076L141.997 3.568H144.409L143.275 8.86C143.239 9.052 143.209 9.226 143.185 9.382C143.173 9.538 143.167 9.688 143.167 9.832C143.167 10.24 143.251 10.546 143.419 10.75C143.599 10.942 143.839 11.038 144.139 11.038C144.571 11.038 145.021 10.858 145.489 10.498C145.957 10.126 146.329 9.652 146.605 9.076L147.775 3.568H150.187L148.189 13ZM154.806 13.18C153.918 13.18 153.162 12.982 152.538 12.586C151.914 12.19 151.446 11.65 151.134 10.966C150.822 10.282 150.684 9.52 150.72 8.68C150.756 7.948 150.918 7.264 151.206 6.628C151.494 5.992 151.89 5.434 152.394 4.954C152.898 4.462 153.486 4.084 154.158 3.82C154.83 3.544 155.556 3.406 156.336 3.406C156.996 3.406 157.584 3.508 158.1 3.712C158.628 3.904 159.048 4.198 159.36 4.594C159.672 4.99 159.834 5.47 159.846 6.034C159.882 7.03 159.468 7.792 158.604 8.32C157.74 8.848 156.396 9.112 154.572 9.112C154.152 9.112 153.708 9.106 153.24 9.094C152.784 9.07 152.304 9.034 151.8 8.986L152.088 7.42C152.508 7.456 152.91 7.486 153.294 7.51C153.678 7.522 154.074 7.528 154.482 7.528C155.238 7.528 155.832 7.48 156.264 7.384C156.708 7.276 157.02 7.126 157.2 6.934C157.38 6.742 157.458 6.508 157.434 6.232C157.422 6.016 157.35 5.83 157.218 5.674C157.098 5.518 156.93 5.404 156.714 5.332C156.498 5.248 156.258 5.206 155.994 5.206C155.622 5.206 155.268 5.296 154.932 5.476C154.608 5.656 154.314 5.908 154.05 6.232C153.798 6.556 153.594 6.934 153.438 7.366C153.282 7.798 153.192 8.266 153.168 8.77C153.132 9.298 153.18 9.76 153.312 10.156C153.444 10.54 153.666 10.84 153.978 11.056C154.29 11.26 154.68 11.362 155.148 11.362C155.484 11.362 155.778 11.32 156.03 11.236C156.282 11.14 156.498 11.026 156.678 10.894C156.858 10.762 157.002 10.636 157.11 10.516C157.218 10.396 157.29 10.3 157.326 10.228L159.324 10.858C159.216 11.038 159.042 11.26 158.802 11.524C158.574 11.776 158.274 12.028 157.902 12.28C157.542 12.532 157.104 12.748 156.588 12.928C156.072 13.096 155.478 13.18 154.806 13.18ZM160.498 13L162.496 3.568H164.908L164.116 7.258H167.968L168.742 3.568H171.154L169.156 13H166.744L167.572 9.094H163.738L162.91 13H160.498ZM173.829 13.18C172.353 13.18 171.615 12.412 171.615 10.876C171.615 10.66 171.627 10.438 171.651 10.21C171.687 9.982 171.735 9.736 171.795 9.472L173.055 3.568H175.449L174.315 8.95C174.231 9.298 174.189 9.598 174.189 9.85C174.189 10.702 174.549 11.128 175.269 11.128C175.557 11.128 175.845 11.068 176.133 10.948C176.433 10.816 176.733 10.624 177.033 10.372C177.333 10.12 177.609 9.802 177.861 9.418L179.103 3.568H181.515L180.093 10.228C180.081 10.288 180.069 10.348 180.057 10.408C180.057 10.456 180.057 10.504 180.057 10.552C180.057 10.804 180.201 10.936 180.489 10.948L180.057 13C179.841 13.036 179.649 13.066 179.481 13.09C179.325 13.114 179.181 13.126 179.049 13.126C178.641 13.126 178.317 13.042 178.077 12.874C177.837 12.706 177.717 12.448 177.717 12.1C177.717 12.04 177.717 11.974 177.717 11.902C177.729 11.83 177.741 11.74 177.753 11.632C177.777 11.512 177.807 11.38 177.843 11.236C177.303 11.872 176.685 12.358 175.989 12.694C175.305 13.018 174.585 13.18 173.829 13.18ZM186.623 13.18C185.735 13.18 184.979 12.982 184.355 12.586C183.731 12.19 183.263 11.65 182.951 10.966C182.639 10.282 182.501 9.52 182.537 8.68C182.573 7.948 182.735 7.264 183.023 6.628C183.311 5.992 183.707 5.434 184.211 4.954C184.715 4.462 185.303 4.084 185.975 3.82C186.647 3.544 187.373 3.406 188.153 3.406C188.813 3.406 189.401 3.508 189.917 3.712C190.445 3.904 190.865 4.198 191.177 4.594C191.489 4.99 191.651 5.47 191.663 6.034C191.699 7.03 191.285 7.792 190.421 8.32C189.557 8.848 188.213 9.112 186.389 9.112C185.969 9.112 185.525 9.106 185.057 9.094C184.601 9.07 184.121 9.034 183.617 8.986L183.905 7.42C184.325 7.456 184.727 7.486 185.111 7.51C185.495 7.522 185.891 7.528 186.299 7.528C187.055 7.528 187.649 7.48 188.081 7.384C188.525 7.276 188.837 7.126 189.017 6.934C189.197 6.742 189.275 6.508 189.251 6.232C189.239 6.016 189.167 5.83 189.035 5.674C188.915 5.518 188.747 5.404 188.531 5.332C188.315 5.248 188.075 5.206 187.811 5.206C187.439 5.206 187.085 5.296 186.749 5.476C186.425 5.656 186.131 5.908 185.867 6.232C185.615 6.556 185.411 6.934 185.255 7.366C185.099 7.798 185.009 8.266 184.985 8.77C184.949 9.298 184.997 9.76 185.129 10.156C185.261 10.54 185.483 10.84 185.795 11.056C186.107 11.26 186.497 11.362 186.965 11.362C187.301 11.362 187.595 11.32 187.847 11.236C188.099 11.14 188.315 11.026 188.495 10.894C188.675 10.762 188.819 10.636 188.927 10.516C189.035 10.396 189.107 10.3 189.143 10.228L191.141 10.858C191.033 11.038 190.859 11.26 190.619 11.524C190.391 11.776 190.091 12.028 189.719 12.28C189.359 12.532 188.921 12.748 188.405 12.928C187.889 13.096 187.295 13.18 186.623 13.18Z" fill="white"/>
</g>
<defs>
<filter id="filter0_d_117_67" x="0.297852" y="0.219971" width="195.419" height="24.902" filterUnits="userSpaceOnUse" color-interpolation-filters="sRGB">
<feFlood flood-opacity="0" result="BackgroundImageFix"/>
<feColorMatrix in="SourceAlpha" type="matrix" values="0 0 0 0 0 0 0 0 0 0 0 0 0 0 0 0 0 0 127 0" result="hardAlpha"/>
<feOffset dy="4"/>
<feGaussianBlur stdDeviation="2"/>
<feComposite in2="hardAlpha" operator="out"/>
<feColorMatrix type="matrix" values="0 0 0 0 0 0 0 0 0 0 0 0 0 0 0 0 0 0 0.25 0"/>
<feBlend mode="normal" in2="BackgroundImageFix" result="effect1_dropShadow_117_67"/>
<feBlend mode="normal" in="SourceGraphic" in2="effect1_dropShadow_117_67" result="shape"/>
</filter>
</defs>
</svg>
