<svg width="392" height="392" viewBox="0 0 392 392" fill="none" xmlns="http://www.w3.org/2000/svg">
<g clip-path="url(#clip0_41_8)">
<path d="M235.2 280.933C239.12 280.933 241.733 278.32 241.733 274.4V254.8H248.266C252.186 254.8 254.799 252.187 254.799 248.267V228.667H385.466C389.386 228.667 391.999 226.054 391.999 222.134V26.1338C391.999 22.2138 389.386 19.6008 385.466 19.6008H359.333V6.53308C359.333 2.61308 356.72 0 352.8 0H300.533C296.613 0 294 2.61308 294 6.53308V19.6H228.667V6.53308C228.667 2.61308 226.054 0 222.134 0H169.867C165.947 0 163.334 2.61308 163.334 6.53308V19.6H98V6.53308C98 2.61308 95.3869 0 91.4669 0H39.2C35.28 0 32.6669 2.61308 32.6669 6.53308V19.6H6.53308C2.61308 19.6 0 22.2131 0 26.1331V222.133C0 226.053 2.61308 228.666 6.53308 228.666H137.2V248.266C137.2 252.186 139.813 254.799 143.733 254.799H150.266V274.399C150.266 278.319 152.879 280.932 156.799 280.932H176.399V378.932H6.53308C2.61308 378.932 0 381.545 0 385.465C0 389.385 2.61308 392 6.53308 392H182.933H209.066H385.466C389.386 392 391.999 389.387 391.999 385.467C391.999 381.547 389.386 378.934 385.466 378.934H215.6V280.934L235.2 280.933ZM307.067 26.1331V13.0669H346.267V26.1338V39.2H307.067V26.1331ZM84.9331 26.1331V39.2H45.7331V26.1331V13.0669H84.9331V26.1331ZM176.4 26.1331V13.0669H215.6V26.1338V39.2H176.4V26.1331ZM150.267 241.733V228.666H241.734V241.733H235.2H156.8H150.267ZM202.533 378.933H189.466V280.933H202.533V378.933ZM209.067 267.867H182.934H163.334V254.8H228.667V267.867H209.067Z" fill="#3E4347" stroke="#3E4347" stroke-width="0.390625"/>
</g>
<defs>
<clipPath id="clip0_41_8">
<rect width="392" height="392" fill="white"/>
</clipPath>
</defs>
</svg>
