<svg width="392" height="392" viewBox="0 0 392 392" fill="none" xmlns="http://www.w3.org/2000/svg">
<g clip-path="url(#clip0_202_10)">
<path d="M347.243 182.948H330.598V387.006H61.587V182.948H46.2808L83.9011 70.033H127.814L186.452 3.40399L246.676 70.033H300.217L347.243 182.948ZM99.1571 347.576H161.237V283.742H99.1571V347.576ZM99.1571 260.799H161.237V196.965H99.1571V260.799ZM293.952 196.965H231.873V260.799H293.952V196.965ZM293.952 283.742H231.873V347.576H293.952V283.742ZM258.599 311.728H238.322V291.441H258.599V311.728ZM258.599 340.538H238.322V320.251H258.599V340.538ZM287.395 311.728H267.117V291.441H287.395V311.728ZM287.395 340.538H267.117V320.251H287.395V340.538ZM258.599 224.951H238.322V204.664H258.599V224.951ZM258.599 253.76H238.322V233.473H258.599V253.76ZM287.395 224.951H267.117V204.664H287.395V224.951ZM287.395 253.76H267.117V233.473H287.395V253.76ZM134.402 233.473H154.679V253.76H134.402V233.473ZM134.402 204.664H154.679V224.951H134.402V204.664ZM105.606 233.473H125.884V253.76H105.606V233.473ZM105.606 204.664H125.884V224.951H105.606V204.664ZM134.402 320.251H154.679V340.538H134.402V320.251ZM134.402 291.441H154.679V311.728H134.402V291.441ZM105.606 320.251H125.884V340.538H105.606V320.251ZM105.606 291.441H125.884V311.728H105.606V291.441Z" fill="#3E4347" stroke="#3E4347" stroke-width="5.33333"/>
</g>
<defs>
<clipPath id="clip0_202_10">
<rect width="392" height="392" fill="white"/>
</clipPath>
</defs>
</svg>
