<svg width="427" height="427" viewBox="0 0 427 427" fill="none" xmlns="http://www.w3.org/2000/svg">
<path d="M338.042 249.083C329.146 249.083 320.25 240.187 320.25 231.292C320.25 222.396 329.146 213.5 338.042 213.5C346.937 213.5 355.833 222.396 355.833 231.292C355.833 240.187 346.937 249.083 338.042 249.083ZM266.875 249.083C257.979 249.083 249.083 240.187 249.083 231.292C249.083 222.396 257.979 213.5 266.875 213.5C275.771 213.5 284.667 222.396 284.667 231.292C284.667 240.187 275.771 249.083 266.875 249.083ZM382.521 342.134C409.564 322.563 427 293.385 427 261.182C427 201.935 369.355 154.076 298.366 154.076C227.377 154.076 169.732 202.113 169.732 261.182C169.732 320.25 227.377 368.287 298.366 368.287C312.955 368.287 327.189 366.153 340.354 362.416C341.6 362.06 342.845 361.882 344.091 361.882C346.582 361.882 348.717 362.594 350.852 363.84L378.962 380.03C379.674 380.564 380.564 380.742 381.453 380.742C383.766 380.742 385.723 378.785 385.723 376.472C385.723 375.404 385.367 374.337 385.012 373.269C384.834 372.735 381.453 359.747 379.14 351.563C378.962 350.674 378.607 349.784 378.607 348.895C378.962 346.226 380.386 343.735 382.521 342.134Z" fill="#3E4347"/>
<path d="M195.708 142.333C185.567 142.333 177.917 134.683 177.917 124.542C177.917 114.4 185.567 106.75 195.708 106.75C205.85 106.75 213.5 114.4 213.5 124.542C213.5 134.683 205.85 142.333 195.708 142.333ZM106.75 142.333C96.6087 142.333 88.9583 134.683 88.9583 124.542C88.9583 114.4 96.6087 106.75 106.75 106.75C116.891 106.75 124.542 114.4 124.542 124.542C124.542 134.683 116.891 142.333 106.75 142.333ZM154.254 35.5833C69.0317 35.5833 0 93.2283 0 164.217C0 203.003 20.8162 237.875 53.375 261.36C56.0437 263.139 57.645 266.341 57.645 269.722C57.645 270.789 57.4671 271.857 57.1112 272.924C54.4425 282.532 50.3504 298.188 50.1725 298.9C49.8167 300.145 49.2829 301.391 49.2829 302.636C49.2829 305.483 51.5958 307.796 54.4425 307.796C55.51 307.796 56.3996 307.44 57.4671 306.906L91.2712 287.335C93.7621 285.912 96.4308 285.023 99.4554 285.023C101.057 285.023 102.48 285.2 104.081 285.734C119.916 290.182 136.818 292.851 154.432 292.851C157.278 292.851 160.125 292.851 162.972 292.673C159.591 282.71 157.812 272.035 157.812 261.182C157.812 196.42 220.795 143.935 298.544 143.935C301.391 143.935 304.237 144.113 306.906 144.113C295.164 82.5533 231.292 35.5833 154.254 35.5833Z" fill="#3E4347"/>
</svg>
