<svg width="392" height="392" viewBox="0 0 392 392" fill="none" xmlns="http://www.w3.org/2000/svg">
<path fill-rule="evenodd" clip-rule="evenodd" d="M371.647 337.034H354.261V370.69C354.261 382.398 344.691 392 332.951 392H311.163C299.455 392 289.853 382.398 289.853 370.69V337.034H101.573V370.69C101.573 382.398 91.9709 392 80.2632 392H58.4748C46.7671 392 37.1649 382.398 37.1649 370.69V337.034H20.353V70.0228C20.353 45.4271 34.7085 27.5306 63.5789 16.429C91.5562 5.51888 135.707 0 196 0C256.293 0 300.444 5.51888 328.421 16.429C357.324 27.5625 371.647 45.4271 371.647 70.0547V337.034ZM107.475 274.094H284.526C285.706 274.094 286.663 275.625 286.663 277.507V287.715C286.663 289.598 285.706 291.129 284.526 291.129H107.475C106.294 291.129 105.337 289.598 105.337 287.715V277.507C105.337 275.625 106.294 274.094 107.475 274.094ZM107.475 299.902H284.526C285.706 299.902 286.663 301.433 286.663 303.315V313.523C286.663 315.406 285.706 316.937 284.526 316.937H107.475C106.294 316.937 105.337 315.406 105.337 313.523V303.315C105.337 301.433 106.294 299.902 107.475 299.902ZM48.2983 71.4583H179.539C182.953 71.4583 185.76 74.2656 185.76 77.7109V168.916C185.76 172.329 182.953 175.137 179.539 175.137H48.2983C44.8849 175.137 42.0776 172.329 42.0776 168.916V77.679C42.0457 74.2656 44.853 71.4583 48.2983 71.4583ZM212.014 71.4583H343.255C346.669 71.4583 349.508 74.2656 349.508 77.7109V168.916C349.508 172.329 346.701 175.137 343.255 175.137H212.014C208.601 175.137 205.794 172.329 205.794 168.916V77.679C205.794 74.2656 208.601 71.4583 212.014 71.4583ZM354.07 298.37C354.07 292.022 351.901 286.727 347.53 282.356C343.16 277.986 337.768 275.816 331.516 275.816C325.391 275.816 320.095 278.018 315.629 282.356C311.163 286.727 308.962 292.022 308.962 298.37C308.962 304.495 311.163 309.695 315.629 314.066C320.095 318.436 325.391 320.605 331.516 320.605C337.768 320.605 343.16 318.436 347.53 314.066C351.901 309.695 354.07 304.527 354.07 298.37ZM83.0386 298.37C83.0386 292.022 80.8374 286.727 76.4989 282.356C72.1284 277.986 66.8328 275.816 60.4845 275.816C54.2638 275.816 48.8407 278.018 44.4702 282.356C40.0998 286.727 38.0262 292.022 38.0262 298.37C38.0262 304.495 40.0998 309.695 44.4702 314.066C48.8407 318.436 54.2319 320.605 60.4845 320.605C66.8328 320.605 72.1284 318.436 76.4989 314.066C80.8374 309.695 83.0386 304.527 83.0386 298.37Z" fill="#3E4347"/>
</svg>
