<svg width="392" height="392" viewBox="0 0 392 392" fill="none" xmlns="http://www.w3.org/2000/svg">
<path d="M327.891 66.8169H257.741L292.313 32.2443C297.732 26.8252 297.732 18.032 292.313 12.6252C286.894 7.20608 278.113 7.20608 272.682 12.6252L218.49 66.8169H173.51L119.318 12.6252C113.887 7.20608 105.106 7.20608 99.6989 12.6252C94.2676 18.0328 94.2676 26.8252 99.6989 32.2443L134.271 66.8169H64.1088C28.7109 66.8169 0 95.5163 0 130.926V319.33C0 354.74 28.7109 383.439 64.1088 383.439H327.89C363.301 383.439 391.999 354.74 391.999 319.33V130.926C392 95.5163 363.301 66.8169 327.891 66.8169ZM322.902 281.755C322.902 303.037 305.64 320.299 284.358 320.299H107.642C86.3602 320.299 69.0977 303.037 69.0977 281.755V168.49C69.0977 147.208 86.3602 129.957 107.642 129.957H284.358C305.641 129.957 322.903 147.208 322.903 168.49V281.755H322.902Z" fill="#3E4347"/>
</svg>
